HIERARCHY
ROOT Bip001_Pelvis
{
  OFFSET 33.2923 95.8902 -28.781
  CHANNELS 6 Xposition Yposition Zposition Zrotation Xrotation Yrotation
  JOINT Bip001_Spine
  {
    OFFSET 1.4188e-005 10.2191 -0.0116013
    CHANNELS 3 Zrotation Xrotation Yrotation
    JOINT Bip001_L_Thigh
    {
      OFFSET 11.0458 -10.2192 0.0116197
      CHANNELS 3 Zrotation Xrotation Yrotation
      JOINT Bip001_L_Calf
      {
        OFFSET -0.707118 -44.0221 0.360014
        CHANNELS 3 Zrotation Xrotation Yrotation
        JOINT Bip001_L_Foot
        {
          OFFSET -0.651902 -40.5938 -3.56146
          CHANNELS 3 Zrotation Xrotation Yrotation
          JOINT Bip001_L_Toe0
          {
            OFFSET 0.0530839 -10.2181 13.1504
            CHANNELS 3 Zrotation Xrotation Yrotation
            End Site
            {
              OFFSET -1.02532e-005 0 7.55606
            }
          }
        }
      }
    }
    JOINT Bip001_R_Thigh
    {
      OFFSET -11.0458 -10.2191 0.0115893
      CHANNELS 3 Zrotation Xrotation Yrotation
      JOINT Bip001_R_Calf
      {
        OFFSET 0.706994 -44.0221 0.35984
        CHANNELS 3 Zrotation Xrotation Yrotation
        JOINT Bip001_R_Foot
        {
          OFFSET 0.651786 -40.5938 -3.5613
          CHANNELS 3 Zrotation Xrotation Yrotation
          JOINT Bip001_R_Toe0
          {
            OFFSET -0.0531479 -10.2181 13.1504
            CHANNELS 3 Zrotation Xrotation Yrotation
            End Site
            {
              OFFSET -1.02894e-005 0 7.55606
            }
          }
        }
      }
    }
    JOINT Bip001_Spine1
    {
      OFFSET 1.87041e-005 14.5736 1.08638
      CHANNELS 3 Zrotation Xrotation Yrotation
      JOINT Bip001_Spine2
      {
        OFFSET 2.24614e-005 14.5058 -1.69078
        CHANNELS 3 Zrotation Xrotation Yrotation
        JOINT Bip001_Neck
        {
          OFFSET 2.20278e-005 15.3945 -0.489414
          CHANNELS 3 Zrotation Xrotation Yrotation
          JOINT Bip001_L_Clavicle
          {
            OFFSET 6.06036 -0.000579998 0.00836775
            CHANNELS 3 Zrotation Xrotation Yrotation
            JOINT Bip001_L_UpperArm
            {
              OFFSET 11.5509 -0.0600302 0.00193952
              CHANNELS 3 Zrotation Xrotation Yrotation
              JOINT Bip001_L_Forearm
              {
                OFFSET 25.9523 0.0806089 -2.15551
                CHANNELS 3 Zrotation Xrotation Yrotation
                JOINT Bip001_L_Hand
                {
                  OFFSET 32.2476 0.153767 1.63968
                  CHANNELS 3 Zrotation Xrotation Yrotation
                  JOINT Bip001_L_Finger0
                  {
                    OFFSET 6.04639 -2.20976 5.90322
                    CHANNELS 3 Zrotation Xrotation Yrotation
                    End Site
                    {
                      OFFSET 4.22376 -1.43895 0.606486
                    }
                  }
                  JOINT Bip001_L_Finger1
                  {
                    OFFSET 11.0826 -0.704819 -0.198153
                    CHANNELS 3 Zrotation Xrotation Yrotation
                    End Site
                    {
                      OFFSET 6.20028 -0.397518 -0.0787166
                    }
                  }
                }
              }
            }
          }
          JOINT Bip001_R_Clavicle
          {
            OFFSET -6.06036 -0.000563197 0.00835105
            CHANNELS 3 Zrotation Xrotation Yrotation
            JOINT Bip001_R_UpperArm
            {
              OFFSET -11.5509 -0.0599978 0.00190698
              CHANNELS 3 Zrotation Xrotation Yrotation
              JOINT Bip001_R_Forearm
              {
                OFFSET -25.9523 0.080682 -2.1559
                CHANNELS 3 Zrotation Xrotation Yrotation
                JOINT Bip001_R_Hand
                {
                  OFFSET -32.2476 0.153858 1.63991
                  CHANNELS 3 Zrotation Xrotation Yrotation
                  JOINT Bip001_R_Finger0
                  {
                    OFFSET -6.04641 -2.20974 5.90321
                    CHANNELS 3 Zrotation Xrotation Yrotation
                    End Site
                    {
                      OFFSET -4.22376 -1.43894 0.606474
                    }
                  }
                  JOINT Bip001_R_Finger1
                  {
                    OFFSET -11.0826 -0.704789 -0.198184
                    CHANNELS 3 Zrotation Xrotation Yrotation
                    End Site
                    {
                      OFFSET -6.20028 -0.397501 -0.0787338
                    }
                  }
                }
              }
            }
          }
          JOINT Bip001_Head
          {
            OFFSET 1.09673e-005 11.2744 2.05948
            CHANNELS 3 Zrotation Xrotation Yrotation
            End Site
            {
              OFFSET 2.89576e-005 20.8808 -2.77728e-005
            }
          }
        }
      }
    }
  }
}
MOTION
Frames:	5
Frame Time:	0.04
32.0149 95.8142 -27.4528 -0.185621 -1.80921 3.79287 -0.110114 2.42681 -0.500432 6.6517 -2.07816 7.22044 -1.27485 8.28327 -14.3282 4.77872 -2.82482 -0.113131 -3.19445 -4.70379 5.08558 -1.49772 -0.499958 -5.71211 -1.36023 9.5065 0.523526 -5.25538 -10.095 3.98965 2.18976 -7.4563 2.30109 -0.192802 4.85446 -0.998785 -0.194328 4.85445 -0.998224 -5.08762 -1.09779 0.616985 -20.1946 2.63301 -1.11039 -48.3398 37.4374 -2.45832 12.3563 1.51786 -24.265 7.4325 1.13663 -2.01951 -3.18055e-015 0 -3.18055e-015 3.18055e-015 3.18056e-015 -3.18055e-015 18.953 9.43515 35.4869 63.6247 -14.0745 59.5258 -34.4922 -3.01369 92.9247 -49.9726 20.5116 11.4746 3.18055e-015 6.36111e-015 -1.19271e-015 3.97569e-016 0 -4.37326e-015 5.00292 12.008 -2.4432 
31.912 95.8013 -27.4097 -0.300481 -1.81568 4.22681 -0.109976 2.40124 -0.409714 6.88693 -2.26693 6.92309 -1.31632 8.55052 -14.5069 4.81542 -2.8802 -0.10971 -3.13146 -4.77588 5.01418 -1.23645 -0.298932 -5.979 -1.40685 9.32503 0.49837 -5.35851 -10.0462 3.80415 2.19348 -7.43559 2.26443 -0.200302 4.80316 -0.816795 -0.203331 4.80318 -0.816369 -4.79676 -1.03193 0.417526 -20.4583 2.42734 -0.70776 -48.3399 37.6624 -2.70623 12.3367 1.60136 -24.0235 7.40821 1.21594 -1.93719 -3.53112e-031 6.36111e-015 3.18055e-015 -3.18055e-015 9.54167e-015 -0 17.6366 9.33472 36.9367 61.859 -10.4695 60.7395 -34.4679 -2.64319 89.2591 -51.3116 20.287 11.957 8.82781e-031 1.27222e-014 -3.97569e-015 -7.95139e-016 6.36111e-015 -5.56597e-015 4.76976 12.0545 -2.48218 
31.7034 95.7867 -27.4209 -0.691309 -1.69175 4.72766 -0.0512815 2.36239 -0.404498 7.51484 -2.8651 6.78737 -1.46041 9.34436 -14.7298 4.50687 -3.48469 -0.075213 -3.23563 -4.49496 5.12062 -0.610081 -0.142764 -6.04395 -1.5524 8.84175 0.655017 -5.57082 -9.74516 3.25618 2.20309 -7.47918 2.28754 -0.084792 4.72505 -0.805896 -0.0852822 4.72507 -0.806958 -5.10614 -1.24467 0.553901 -20.0704 2.46546 -0.11346 -48.5124 37.5565 -2.93658 12.3751 1.93768 -23.9993 7.54326 1.32398 -1.99639 4.77083e-015 6.36111e-015 -3.18055e-015 1.59028e-015 0 -3.18055e-015 16.6415 9.34366 38.2793 57.3428 -6.63127 60.4205 -36.6861 -3.8408 83.5232 -51.2503 20.4207 12.1608 3.97569e-015 -6.36111e-015 -1.59028e-015 2.38542e-015 -1.27222e-014 -3.18055e-015 5.16444 12.4417 -2.58962 
31.5051 95.7652 -27.446 -0.97218 -1.58113 5.18193 0.0160615 2.3371 -0.203913 7.9928 -3.33161 6.44893 -1.72894 9.7603 -15.0564 4.90571 -3.3556 -0.0896935 -3.13378 -4.74833 5.01285 -0.174733 -0.129195 -6.24369 -1.60312 8.6338 0.711153 -5.75096 -9.56706 2.78009 2.20411 -7.48283 2.28256 0.0410926 4.67413 -0.410268 0.0395284 4.67413 -0.409599 -3.89231 -0.422421 -0.17596 -21.603 1.66991 -0.414058 -48.3229 37.2954 -2.80812 12.0184 1.44728 -24.1789 7.48582 1.52314 -2.02932 -4.77083e-015 -6.36111e-015 -0 -4.77083e-015 -6.36111e-015 -0 14.1288 8.25626 39.1536 49.7067 -0.740357 59.9169 -41.4418 -6.94389 72.6441 -50.662 19.7942 13.057 7.95139e-016 -3.18055e-015 -1.59028e-015 -7.95139e-016 -9.54167e-015 -2.38542e-015 3.7044 11.6063 -2.44863 
31.3687 95.7655 -27.4445 -1.14372 -1.53677 5.57539 0.0406255 2.37713 -0.275421 8.31918 -3.68233 6.53242 -1.78036 10.122 -15.3792 4.58173 -3.70832 -0.0681285 -3.26972 -4.51911 5.1265 0.153556 -0.0648541 -6.33534 -1.70082 8.35788 0.664067 -5.80869 -9.43389 2.62206 2.10736 -7.47613 2.6169 0.0941097 4.75402 -0.553763 0.0935272 4.75403 -0.553562 -4.52252 -0.795903 0.294326 -20.8405 1.90956 0.148049 -48.3777 37.4096 -3.13856 12.0249 1.362 -24.5243 7.46415 1.72938 -2.01311 9.54166e-015 -3.18055e-015 -3.18055e-015 7.95139e-015 0 -3.18055e-015 12.625 7.89803 39.9618 41.7283 3.91019 60.3683 -44.4522 -9.30168 59.8599 -49.8078 20.8582 13.2099 2.64834e-031 -3.18055e-015 4.77083e-015 3.18055e-015 -3.18056e-015 1.59028e-015 4.20164 11.8099 -2.34607 
